<?xml version="1.0" standalone="no"?>
<!DOCTYPE svg PUBLIC "-//W3C//DTD SVG 1.1//EN" "http://www.w3.org/Graphics/SVG/1.1/DTD/svg11.dtd" >
<svg xmlns="http://www.w3.org/2000/svg" xmlns:xlink="http://www.w3.org/1999/xlink" version="1.1">
<metadata>
Created by FontForge 20170924 at Wed Mar  3 21:11:34 1999
 By www-data
Sign Painter House Slant (C) 1993-1999 House Industries/Brand Design Co. Inc.
</metadata>
<defs>
<font id="SignPainterHouseSlant" horiz-adv-x="463" >
  <font-face 
    font-family="SignPainter HouseSlant"
    font-weight="400"
    font-stretch="normal"
    units-per-em="1000"
    panose-1="0 0 4 0 0 0 0 0 0 0"
    ascent="800"
    descent="-200"
    x-height="633"
    cap-height="630"
    bbox="-89 -184 697 800"
    underline-thickness="20"
    underline-position="-143"
    unicode-range="U+0020-2026"
  />
<missing-glyph horiz-adv-x="500" 
d="M63 0v800h375v-800h-375zM125 63h250v675h-250v-675z" />
    <glyph glyph-name=".notdef" horiz-adv-x="500" 
d="M63 0v800h375v-800h-375zM125 63h250v675h-250v-675z" />
    <glyph glyph-name=".null" horiz-adv-x="0" 
 />
    <glyph glyph-name="nonmarkingreturn" horiz-adv-x="241" 
 />
    <glyph glyph-name="space" unicode=" " horiz-adv-x="241" 
 />
    <glyph glyph-name="exclam" unicode="!" horiz-adv-x="267" 
d="M285 634q17 -15 17 -31q0 -9 -5 -22q-102 -256 -154 -415q-7 -22 -22 -22q-29 0 -71 27q-18 12 -18 30q0 10 4 24q41 155 136 423q9 26 26 26q16 0 46 -15q27 -13 41 -25zM54 124q12 0 25 -4q43 -15 43 -60q0 -16 -5 -31q-7 -20 -26 -38q-23 -22 -51 -23q-27 -1 -46 18.5
t-19 49.5q0 34 22.5 61t56.5 27z" />
    <glyph glyph-name="quotedbl" unicode="&#x22;" horiz-adv-x="374" 
d="M199 502q-17 -25 -39 -29q-26 -4 -46 -2t-20 15q0 6 4 15q61 139 88 221q6 19 19 19q8 0 19 -7q30 -19 40 -32q16 -20 6 -53q-22 -76 -71 -147zM341 477q-20 -23 -42 -24q-65 -4 -65 19q0 6 6 16q70 117 113 209q8 17 19 17q9 0 20 -9q26 -21 35 -35t9 -25q0 -10 -8 -30
q-32 -76 -87 -138z" />
    <glyph glyph-name="numbersign" unicode="#" horiz-adv-x="478" 
d="M395 378q-6 -16 -18 -48.5t-18 -48.5q40 -1 56 -38q4 -9 4 -14q0 -11 -18.5 -13t-67.5 -8q-30 -85 -43 -126q-5 -17 -15 -17q-6 0 -15 6q-32 20 -32 54q0 18 15 68q-28 -5 -83 -17l-35 -109q-6 -17 -14 -17q-5 0 -15 6q-35 20 -35 56q0 13 8 43q-40 -6 -63 40
q-5 10 -5 16q0 10 18 15q33 8 76 18q10 30 29 92l-3 -1q-11 -2 -20 -2q-32 0 -53 43q-5 10 -5 15q0 10 20 15q33 8 92 18q27 80 54 142q7 17 18 17q7 0 17 -8q32 -26 32 -59q0 -14 -24 -78q54 6 78 8q29 77 56 139q7 17 18 17q7 0 17 -9q30 -26 30 -58q0 -20 -28 -84
q29 -1 41 -10t20 -31q3 -9 3 -14q0 -10 -21 -12t-71 -6zM301 366q-52 -7 -80 -13q-18 -50 -32 -91q50 7 80 11q12 38 32 93z" />
    <glyph glyph-name="dollar" unicode="$" horiz-adv-x="369" 
d="M216 557q17 42 45 109q8 16 18 16q8 0 18 -8q29 -23 29 -59q0 -25 -24 -89q20 -18 24 -22q12 -13 17 -28q7 -19 4 -45q-7 -66 -35 -120q-10 -19 -30 -11q-49 20 -49 65q0 14 7.5 42.5t7.5 41.5q0 10 -4 12q-14 8 -45 -29q-34 -38 -34 -74q0 -20 13 -35q2 -2 76 -66
q44 -38 44 -73q0 -16 -8 -34q-14 -32 -43 -56q-37 -30 -84 -31q-10 0 -17 1q-24 -72 -34 -109q-5 -17 -14 -17q-6 0 -16 6q-28 18 -28 69q0 19 13 77q-31 19 -60 56q-16 21 -16 35q0 29 44 29q27 0 44 -14q49 -38 91 -38q26 0 26 13q0 12 -41 42q-53 39 -70 57
q-37 39 -37 87q0 25 11 50q39 91 116 137q19 12 41 13z" />
    <glyph glyph-name="percent" unicode="%" horiz-adv-x="593" 
d="M522 508q-75 -86 -206 -249q-138 -172 -195 -252q-8 -12 -15 -12q-6 0 -16 12q-19 22 -19 43q0 22 19 49q102 149 308 397q-33 -19 -68 -19q-20 0 -37 7q-13 -115 -76 -166q-24 -20 -53 -20q-36 0 -66 24q-19 15 -28 41q-6 19 -6 43q0 54 28 114t71 91q26 19 54 12
q37 -9 54 -28q8 -8 21 -35t48 -30q30 -3 72 17q46 21 80 58q10 11 18 11q12 0 23 -25q9 -20 9 -35q0 -25 -20 -48zM527 234q3 -56 -18 -119q-24 -70 -65 -102q-25 -19 -54 -19q-35 0 -65 23q-18 14 -26 41q-5 17 -5 39q0 54 29.5 115t73.5 94q26 19 55 12q34 -9 53.5 -29
t21.5 -55zM220 561q-9 5 -30.5 -25t-33.5 -63q-20 -55 -20 -89q0 -21 9 -25q29 -12 62 87q19 57 19 93q0 19 -6 22zM453 256q-9 5 -31 -25t-35 -63q-23 -57 -23 -92q0 -19 9 -23q11 -5 29 19t35 68q22 58 22 96q0 17 -6 20z" />
    <glyph glyph-name="ampersand" unicode="&#x26;" horiz-adv-x="519" 
d="M313 47q-46 -31 -102 -50q-41 -13 -71 -13q-58 0 -107 47t-49 99q0 96 155 191q-8 14 -16 38q-17 49 -17 85q0 46 28 93q22 36 64 65t85 39q26 6 44 6q53 0 95 -55q37 -49 37 -102q0 -59 -46 -109q-38 -41 -129 -97q26 -49 53 -90q37 29 65 54q16 14 28 14q20 0 20 -39
q0 -53 -56 -109q25 -34 39 -50q11 -12 11 -20q0 -9 -14 -19q-26 -19 -47 -23q-27 -5 -70 45zM239 380q49 28 76 53q39 34 39 77q0 20 -11 35q-68 -17 -100 -69q-14 -22 -14 -48q0 -19 8 -42zM247 135q-28 41 -56 88q-83 -63 -83 -110q0 -20 25 -20q40 0 114 42z" />
    <glyph glyph-name="quotesingle" unicode="'" horiz-adv-x="212" 
d="M189 477q-20 -23 -42 -24q-24 -2 -46 3q-18 4 -18 15q0 7 6 17q72 124 112 209q8 17 19 17q9 0 20 -9q26 -21 35 -35t9 -25q0 -10 -8 -30q-32 -76 -87 -138z" />
    <glyph glyph-name="parenleft" unicode="(" horiz-adv-x="243" 
d="M222 677q10 12 21 12t22 -16q24 -36 24 -72q0 -33 -20 -64q-56 -85 -89 -189q-35 -109 -35 -210q0 -79 22 -144q3 -8 3 -13q0 -9 -19 -11q-62 -6 -87 62q-27 74 -27 165q0 125 49.5 254.5t135.5 225.5z" />
    <glyph glyph-name="parenright" unicode=")" horiz-adv-x="271" 
d="M249 558q3 -27 3 -55q0 -135 -54.5 -278.5t-138.5 -225.5q-39 -38 -101 -32q-18 2 -18 13q0 7 8 16q79 92 129.5 242.5t50.5 294.5q0 56 -9 106q-1 8 -1 14q0 20 18 20q5 0 12 -1q91 -19 101 -114z" />
    <glyph glyph-name="asterisk" unicode="*" horiz-adv-x="475" 
d="M449 421q-35 -7 -105 -25q24 -25 77 -78q10 -10 10 -16t-14 -15q-19 -12 -36 -12q-32 0 -99 67q-11 -35 -33 -108q-5 -16 -13 -16q-6 0 -17 6q-34 19 -34 55q0 14 4 31q6 26 11 41q-71 -25 -85 -25q-33 0 -57 39q-7 11 -7 16q0 9 18 16q60 23 117 41q-42 48 -78 92
q-8 10 -8 17q0 12 22 20q17 6 32 6q31 0 55 -28q13 -15 37 -43q22 65 47 122q8 17 17 17q7 0 17 -8q32 -27 32 -60q0 -15 -6 -31q-14 -34 -24 -64q44 10 68 10q45 0 65 -38q5 -9 5 -15q0 -11 -18 -14z" />
    <glyph glyph-name="plus" unicode="+" horiz-adv-x="488" 
d="M409 263q-81 -1 -149 -8q-27 -85 -44 -146q-5 -19 -14 -19q-5 0 -15 5q-35 18 -44 26q-21 19 -16 44q8 41 18 77q-29 -4 -65 -11q-26 -5 -40 15q-20 28 -27 63q-5 23 27 30q55 12 140 18q29 87 51 133q10 21 26 21q11 0 33 -16q19 -14 28 -26q15 -19 5 -43
q-8 -20 -25 -62q48 2 79 0q26 -1 38 -27q5 -11 14 -49q2 -7 1 -12q-1 -13 -21 -13z" />
    <glyph glyph-name="comma" unicode="," horiz-adv-x="209" 
d="M25 -102q-20 -21 -43 -22q-22 -1 -56 11q-15 6 -15 16q0 7 6 18q60 98 101 173q9 17 22 17q8 0 19 -7q61 -36 61 -64q0 -10 -9 -26q-34 -63 -86 -116z" />
    <glyph glyph-name="hyphen" unicode="-" horiz-adv-x="395" 
d="M48 342q106 22 240 22q29 0 37.5 -25t13.5 -55q4 -24 -25 -26q-124 -7 -222 -27q-27 -6 -42 19q-26 44 -26 67q0 20 24 25z" />
    <glyph glyph-name="hyphen" unicode="&#x2010;" horiz-adv-x="395" 
d="M48 342q106 22 240 22q29 0 37.5 -25t13.5 -55q4 -24 -25 -26q-124 -7 -222 -27q-27 -6 -42 19q-26 44 -26 67q0 20 24 25z" />
    <glyph glyph-name="period" unicode="." horiz-adv-x="221" 
d="M64 132q12 0 25 -4q43 -15 43 -59q0 -16 -6 -32q-23 -59 -76 -60q-28 -1 -46.5 18t-18.5 49q0 34 22.5 61t56.5 27z" />
    <glyph glyph-name="slash" unicode="/" horiz-adv-x="354" 
d="M409 570q0 -10 -11 -26q-56 -82 -173.5 -274t-171.5 -288q-10 -18 -21 -18q-7 0 -18 7q-22 14 -42 35q-11 12 -11 25q0 12 10 32q38 79 156.5 282t173.5 285q12 18 26 18q10 0 21 -9q61 -48 61 -69z" />
    <glyph glyph-name="zero" unicode="0" horiz-adv-x="457" 
d="M409 584q36 -36 39 -94q5 -80 -23 -193q-32 -130 -87 -212q-68 -99 -154 -99q-67 0 -118 36q-38 27 -50 70q-10 36 -10 82q0 111 52 233q56 127 139 193q38 30 88 30q29 0 67.5 -13.5t56.5 -32.5zM309 517q-23 8 -66.5 -54t-72.5 -138q-35 -92 -35 -168q0 -65 30 -65
q26 0 60.5 54.5t61.5 135.5q36 110 36 189q0 41 -14 46z" />
    <glyph glyph-name="one" unicode="1" horiz-adv-x="258" 
d="M277 543q-92 -249 -170 -536q-6 -23 -20 -23q-5 0 -14 3q-37 11 -60 27q-17 12 -17 33q0 9 3 23q39 172 113 399q-29 19 -29 30q0 8 8 22q24 42 61 88q16 20 30 20q37 0 82 -38q18 -15 18 -27q0 -8 -5 -21z" />
    <glyph glyph-name="two" unicode="2" horiz-adv-x="413" 
d="M163 119q43 8 105 11q27 1 41 -26q21 -42 21 -67q0 -14 -22 -16q-130 -12 -234 -38q-17 -4 -28 -4q-19 0 -31 15q-33 41 -45 63q-8 16 -8 28q0 17 16 30q111 87 226 217t115 165q0 11 -12 11q-22 0 -103 -73q-24 -21 -63 -21q-28 0 -52 10q-16 7 -16 22q0 17 20 47
q37 55 88 93q62 45 118 45q43 0 81 -27q32 -23 46.5 -53t14.5 -60q0 -50 -48 -125q-82 -130 -230 -247z" />
    <glyph glyph-name="three" unicode="3" horiz-adv-x="433" 
d="M288 309q33 -10 54 -32q41 -43 41 -98t-39 -108q-68 -92 -190 -93q-96 -1 -170 85q-22 25 -22 41q0 13 16.5 24t40.5 11q27 0 49 -14q45 -29 81 -29q39 0 72.5 36t33.5 75q0 19 -8 28q-18 19 -64 12q-29 -4 -55 14.5t-40 52.5q-4 10 -4 18q0 17 18 23q105 38 167 81
q53 37 53 62q0 15 -16 15q-24 0 -75 -34q-22 -15 -51 -15q-22 0 -47 12q-30 14 -30 35q0 11 10 23q59 74 149 96q22 5 41 5q65 0 106 -62q28 -43 28 -89q0 -64 -46 -109q-39 -38 -103 -66z" />
    <glyph glyph-name="four" unicode="4" horiz-adv-x="474" 
d="M385 307q26 -1 35 -28.5t12 -52.5q3 -28 -24 -29q-20 -1 -61 -4q-37 -111 -60 -192q-6 -23 -21 -23q-32 0 -70 31q-17 13 -17 32q0 20 37 139q-65 -8 -113 -17q-32 -6 -50 14q-26 30 -46 68q-6 11 -6 23q0 16 14 37q49 72 133.5 168t146.5 150q18 15 32 15q8 0 20 -4
q17 -6 53 -26.5t52 -34t16 -26.5q0 -8 -5 -21q-41 -108 -78 -219zM130 288q33 4 125 13q30 89 68 194q-94 -88 -193 -207z" />
    <glyph glyph-name="five" unicode="5" horiz-adv-x="393" 
d="M259 484q-32 -61 -59 -127q57 0 104 -33.5t47 -100.5q0 -53 -33 -118q-22 -43 -61 -73q-53 -41 -120 -43q-95 -2 -142 77q-19 33 -19 46q0 10 13 19q20 13 46 13q31 0 49 -16q34 -30 62 -30q30 0 55 35q31 44 31 95q0 19 -7 25.5t-34 5.5q-25 0 -44 -6.5t-25 -6.5
q-8 0 -19.5 10t-38.5 35q-11 11 -11 26q0 11 6 28q34 101 98 228q16 31 50 37q81 13 182 17q33 1 43 -27q4 -10 10 -64q3 -28 -25 -31q-52 -5 -158 -21z" />
    <glyph glyph-name="six" unicode="6" horiz-adv-x="408" 
d="M226 378q32 2 63 -13q76 -36 71 -120q-4 -71 -42 -140q-35 -63 -81 -96q-37 -27 -79 -27q-37 0 -80 21q-87 42 -87 133q0 16 3 35q14 99 70 206q72 138 192 242q25 22 53 16q52 -11 78 -30q16 -12 16 -22q0 -11 -14 -22q-90 -76 -163 -183zM137 221q-26 -63 -26 -97
t26 -34q38 0 79 78q25 48 25 80q0 31 -24 31q-40 0 -80 -58z" />
    <glyph glyph-name="seven" unicode="7" horiz-adv-x="429" 
d="M312 508q-51 -6 -135 -17q-37 -6 -54 18q-8 11 -21 39.5t-13 37.5q0 11 16 15q105 27 268 32q32 1 50 -26q22 -33 36 -62q8 -15 8 -28q0 -17 -15 -36q-177 -228 -319 -491q-9 -17 -19 -17q-13 0 -38 22q-20 18 -30 32t-10 26q0 13 10 33q102 203 266 422z" />
    <glyph glyph-name="eight" unicode="8" horiz-adv-x="436" 
d="M428 404q-32 -47 -121 -101q66 -56 66 -116q0 -53 -53 -121q-66 -84 -161 -84q-41 0 -80 16q-93 39 -93 125q0 16 4 34q20 80 144 164q-50 45 -50 99q0 61 63 125q54 54 118 80q23 9 45 9q55 0 100 -46.5t45 -101.5q0 -42 -27 -82zM311 529q-100 -65 -100 -126
q0 -17 10 -30q109 70 109 117q0 21 -19 39zM217 247q-68 -46 -95 -98q-9 -18 -9 -33q0 -33 28 -33q39 0 72 53q25 39 25 66q0 26 -21 45z" />
    <glyph glyph-name="nine" unicode="9" horiz-adv-x="406" 
d="M156 208q-22 4 -34 9q-84 35 -87 118q-3 73 36 153q37 77 89 116q41 31 87 31q34 0 69 -17q57 -27 81 -62q26 -38 23 -96q-5 -99 -93 -236q-89 -142 -204 -226q-23 -17 -37 -17q-9 0 -19 6q-18 10 -51 36q-12 12 -12 21q0 10 14 21q72 59 138 143zM230 322q58 107 58 168
q0 32 -19 32t-45 -30.5t-44 -70.5q-20 -45 -20 -80q0 -40 29 -40q18 0 41 21z" />
    <glyph glyph-name="colon" unicode=":" horiz-adv-x="246" 
d="M134 392q12 0 25 -4q43 -15 43 -59q0 -16 -6 -32q-23 -59 -76 -60q-28 -1 -46.5 18t-18.5 49q0 34 22.5 61t56.5 27zM52 133q12 0 24 -4q43 -15 43 -67q0 -34 -20.5 -60t-54.5 -26q-29 0 -50 20t-21 49q0 34 23 61t56 27z" />
    <glyph glyph-name="semicolon" unicode=";" horiz-adv-x="260" 
d="M138 392q12 0 25 -4q43 -15 43 -60q0 -15 -5 -31q-7 -21 -25 -38q-24 -21 -52 -22t-46 18.5t-18 49.5q0 34 22 60.5t56 26.5zM31 -102q-20 -21 -43 -22q-21 -1 -55 11q-16 6 -16 17q0 7 6 17q68 112 101 173q9 17 22 17q9 0 20 -7q60 -35 60 -65q0 -9 -9 -25
q-34 -63 -86 -116z" />
    <glyph glyph-name="less" unicode="&#x3c;" horiz-adv-x="348" 
d="M305 375q-56 -22 -145 -66q68 -36 90.5 -52t17.5 -40q-14 -65 -32 -65q-6 0 -16 6q-91 56 -185 99q-16 7 -7 37q4 15 15 49q9 24 30 37q73 45 171 79q28 10 51 -20q27 -34 27 -47q0 -10 -17 -17z" />
    <glyph glyph-name="equal" unicode="=" horiz-adv-x="436" 
d="M117 332q-28 -3 -39.5 20t-17.5 53q-5 28 25 32q140 18 278 4q28 -3 35 -26q10 -30 12 -49q2 -14 -3 -19t-20 -4q-128 5 -270 -11zM88 160q-29 -6 -41 17q-23 41 -23 62q0 19 24 24q140 27 278 24q26 -1 36 -24t15 -48q5 -24 -21 -25q-140 -5 -268 -30z" />
    <glyph glyph-name="greater" unicode="&#x3e;" horiz-adv-x="370" 
d="M341 331q-12 -35 -22.5 -58t-36.5 -31q-96 -30 -177 -69q-21 -10 -38 5q-42 39 -42 62q0 13 16 21q62 30 159 61q-52 26 -89 41q-23 9 -25 32q0 37 7 63q6 23 31 13q104 -41 204 -101q16 -10 16 -22q0 -7 -3 -17z" />
    <glyph glyph-name="question" unicode="?" horiz-adv-x="453" 
d="M110 165q-21 15 -13 52q13 67 70 122q27 27 92 70q87 58 87 107q0 26 -25 25q-23 0 -55.5 -24.5t-62.5 -48.5t-67 -24q-26 0 -50 13q-16 9 -16 21q0 16 23 46q96 127 205 127q80 0 122 -69q29 -47 29 -95q0 -62 -48 -117q-21 -24 -73 -58q-55 -35 -77 -58
q-39 -39 -53 -96q-5 -21 -20 -21q-29 0 -68 28zM112 116q14 0 30 -6q44 -16 44 -61q0 -39 -26 -62.5t-66 -18.5q-57 8 -57 66q0 33 21 57.5t54 24.5z" />
    <glyph glyph-name="at" unicode="@" horiz-adv-x="595" 
d="M544 250q-54 -144 -143 -144q-63 0 -85 51q-25 -23 -58 -23q-18 0 -36 7q-62 24 -62 94q0 34 17 77q27 70 73 115t90 45q56 0 65 -61q24 -17 24 -36q0 -8 -4 -22q-15 -42 -29 -85q-23 -68 -23 -92q0 -15 11 -15q16 0 40 34.5t45 93.5q23 64 23 123q0 104 -77 138
q-23 10 -51 10q-66 0 -129 -52q-69 -58 -107 -159q-26 -68 -26 -125q0 -60 28 -101q22 -33 52 -43q19 -6 45.5 -7.5t37.5 -4.5q37 -10 51 -34q11 -19 -7 -25q-23 -8 -52 -8q-41 0 -84 17q-61 25 -101 80q-47 66 -47 156q0 63 24 135q38 111 122 172q77 56 168 56
q53 0 100 -20q130 -57 130 -214q0 -65 -25 -133zM366 397q0 17 -11 21q-11 5 -44 -33q-37 -41 -56 -89.5t-19 -76.5q0 -24 13 -28q42 -12 117 206z" />
    <glyph glyph-name="A" unicode="A" horiz-adv-x="479" 
d="M295 155q-68 -11 -187 -37q-19 -35 -59 -114q-10 -19 -21 -19q-6 0 -17 5q-34 17 -48 33q-11 12 -11 26q0 12 9 32q111 249 282 524q25 40 69 37q78 -6 132 -30q23 -11 18 -48q-31 -215 -54 -552q-2 -29 -29 -29q-49 0 -68.5 12t-19.5 47q0 27 4 113zM185 263
q77 12 117 15q10 126 23 232q-61 -103 -140 -247z" />
    <glyph glyph-name="B" unicode="B" 
d="M351 303q49 -32 51 -98q1 -59 -53 -110q-36 -33 -98 -67q-58 -31 -108 -47q-24 -8 -36 -8q-17 0 -37 16q-32 25 -61 57q-22 24 -22 43q0 11 5 32q17 74 111 368q-26 49 -26 68q0 16 19 26q112 59 235 59q82 0 113 -37q41 -50 46 -112q6 -71 -67 -136q-30 -27 -72 -54z
M194 356q76 28 131 77q49 44 45 68q-2 16 -33 16q-40 0 -96 -28q-26 -71 -47 -133zM152 232q-13 -42 -39 -125q71 22 116.5 56t42.5 61q-2 23 -49 23q-32 0 -71 -15z" />
    <glyph glyph-name="C" unicode="C" horiz-adv-x="428" 
d="M333 172q22 -8 22 -26q0 -14 -13 -41q-26 -52 -77 -96q-47 -41 -114 -34q-52 5 -98 33q-42 25 -55 68q-10 32 -10 75q0 112 60 247.5t147 209.5q47 40 101 35q74 -7 119 -49q34 -31 32 -89q-2 -71 -25 -129q-9 -23 -24 -23q-6 0 -13 2q-69 16 -72 85q0 11 2.5 32.5
t2.5 30.5q0 21 -12 26q-21 8 -70 -68q-46 -72 -74 -146q-37 -101 -37 -173q0 -55 27 -55q26 0 78 58q29 33 70 33q16 0 33 -6z" />
    <glyph glyph-name="D" unicode="D" horiz-adv-x="489" 
d="M100 494q-29 58 -29 73t19 26q80 45 176 45q152 0 199 -129q14 -40 14 -87q0 -126 -86 -245q-95 -134 -259 -195q-17 -6 -31 -6q-20 0 -39 14q-25 20 -57 53q-23 24 -23 46q0 16 7 40q45 167 109 365zM118 115q113 56 177 160q51 84 51 158q0 19 -4 32q-14 39 -62 39
q-18 0 -38 -7q-61 -166 -124 -382z" />
    <glyph glyph-name="E" unicode="E" horiz-adv-x="385" 
d="M102 506q-16 27 -24 66q-5 22 17 28q112 32 289 38q30 1 39 -28q10 -35 12 -56q2 -29 -27 -32q-81 -8 -157 -21q-16 -44 -51 -137q32 5 77 7q32 1 41 -23q11 -30 14 -58q3 -27 -25 -33q-54 -10 -158 -34q-22 -62 -31 -91q57 11 120 16q33 3 42 -22q12 -31 15 -59t-24 -34
q-61 -13 -175 -42q-16 -5 -28 -5q-19 0 -35 16q-12 11 -40 43q-21 26 -12 65q22 99 121 396z" />
    <glyph glyph-name="F" unicode="F" horiz-adv-x="380" 
d="M407 522q-72 -9 -158 -22q-5 -14 -48 -135q47 6 74 7q31 1 40.5 -22t14.5 -59q4 -28 -25 -33q-82 -15 -150 -32q-34 -105 -69 -218q-7 -23 -24 -23q-13 0 -39 10.5t-38 19.5q-21 15 -14 55q25 137 130 438q-12 22 -23 64q-2 6 -2 11q0 11 19 17q100 30 282 38
q30 1 42.5 -27.5t13.5 -57.5q1 -27 -26 -31z" />
    <glyph glyph-name="G" unicode="G" horiz-adv-x="442" 
d="M426 373q-8 -26 -34 -22q-79 11 -77 87q2 24 3 48q1 38 -9 41q-22 7 -67.5 -56.5t-82.5 -150.5q-41 -96 -41 -177q0 -60 29 -60q44 0 100 115q-72 -4 -81 78q-2 20 24 27q55 14 122 23q40 5 57 -19q12 -17 23 -40q8 -17 8 -30q0 -14 -9 -35q-36 -88 -85 -146
q-67 -80 -141 -80q-62 0 -120 40q-38 27 -51 74q-8 30 -8 68q0 117 66 257q69 147 162 208q38 25 92 18q68 -9 108 -49q30 -30 32 -87q2 -65 -20 -132z" />
    <glyph glyph-name="H" unicode="H" horiz-adv-x="452" 
d="M498 553q-86 -237 -176 -549q-7 -22 -20 -22q-5 0 -14 2q-41 12 -62 29t-13 54q10 48 38 150q-36 -6 -107 -19q-35 -116 -57 -193q-6 -23 -21 -23q-32 0 -76 32q-18 13 -18 33q0 23 42 178q-5 11 -15 45q-2 8 -2 13q0 11 39 22q61 214 93 301q9 25 26 25q14 0 46 -17
q28 -14 42 -25q19 -15 19 -28q0 -8 -5 -20q-36 -99 -71 -209q35 4 101 10q49 163 87 274q8 25 26 25q35 0 85 -40q17 -14 17 -28q0 -8 -4 -20z" />
    <glyph glyph-name="I" unicode="I" horiz-adv-x="208" 
d="M234 589q19 -15 19 -28q0 -8 -5 -20q-84 -229 -170 -536q-6 -23 -21 -23q-32 0 -76 32q-18 13 -18 33q0 8 3 22q18 86 69 265t84 272q9 24 27 24q36 0 88 -41z" />
    <glyph glyph-name="J" unicode="J" horiz-adv-x="418" 
d="M91 -13q-85 28 -101 116q-9 51 11 119q13 45 36 45q7 0 17 -5q68 -35 62 -97q-4 -44 -2 -58q2 -19 17 -20q35 -3 99 197q47 147 88 327q6 25 26 25q17 0 47 -14q27 -12 42.5 -23.5t18.5 -21.5q2 -8 -2 -26q-106 -458 -219 -543q-40 -30 -86 -30q-26 0 -54 9z" />
    <glyph glyph-name="K" unicode="K" horiz-adv-x="443" 
d="M251 243q46 -111 90 -189q5 -10 5 -17q0 -13 -16 -22.5t-46 -17.5q-11 -3 -20 -3q-29 0 -48 29q-50 78 -86 162l-53 -180q-6 -23 -20 -23t-39.5 11.5t-37.5 20.5q-22 17 -14 55q18 88 70 269q53 186 86 277q9 24 27 24q35 0 87 -41q19 -15 19 -27q0 -8 -5 -20
q-18 -46 -61 -180q168 178 232 256q11 14 21 14q15 0 33 -29q15 -23 20 -42q8 -28 -14 -63q-56 -90 -230 -264z" />
    <glyph glyph-name="L" unicode="L" horiz-adv-x="355" 
d="M259 34q-60 -14 -175 -43q-18 -5 -30 -5q-17 0 -33 16q-12 11 -41 43q-20 25 -12 61q22 96 72 252q50 161 90 259q9 23 27 23q16 0 46 -14t43 -25q17 -14 17 -27q0 -8 -5 -21q-73 -190 -146 -419q47 10 114 15q32 3 42 -22.5t15 -58.5q3 -19 -1.5 -24.5t-22.5 -9.5z" />
    <glyph glyph-name="M" unicode="M" horiz-adv-x="616" 
d="M185 381q-65 -206 -110 -376q-6 -24 -22 -24q-29 0 -70 29q-19 14 -19 35q0 8 2 20q16 86 70 269q47 158 85 267q11 31 36 31q6 0 14 -1q40 -6 92 -28q24 -10 31 -27q6 -13 5 -41q-1 -46 -1 -224q87 164 172 301q18 28 42 28q11 0 30 -5q57 -16 100 -39q21 -11 21 -30
q0 -10 -5 -25q-89 -259 -162 -531q-7 -27 -25 -27q-28 0 -68 28q-18 13 -18 34q0 9 2 21q24 117 90 326q-71 -129 -180 -332q-13 -25 -25 -25q-23 0 -56 17q-26 13 -28 55q-6 117 -3 274z" />
    <glyph glyph-name="N" unicode="N" horiz-adv-x="468" 
d="M291 262q41 164 102 344q8 25 28 25q7 0 16 -3q32 -10 60 -29q17 -11 17 -28q0 -10 -5 -25q-83 -249 -159 -532q-7 -26 -30 -26t-72 26q-27 14 -35 50q-24 104 -36 282q-40 -130 -100 -339q-6 -22 -19 -22t-39.5 11.5t-38.5 21.5q-21 17 -13 55q15 69 67 246
q53 186 88 285q9 26 32 26q7 0 15 -2q39 -12 80 -33q29 -15 30 -59q3 -121 12 -274z" />
    <glyph glyph-name="O" unicode="O" 
d="M414 587q37 -37 40 -96q4 -80 -24 -194q-32 -130 -87 -213q-68 -101 -154 -101q-70 0 -121 36q-37 26 -51 72q-11 37 -11 83q0 111 54 233q56 126 140 196q39 32 91 32q29 0 66.5 -14.5t56.5 -33.5zM313 521q-22 7 -67 -59q-42 -62 -70 -136q-37 -99 -37 -177
q0 -60 28 -60q27 0 62 54.5t63 138.5q37 109 37 190q0 44 -16 49z" />
    <glyph glyph-name="P" unicode="P" horiz-adv-x="472" 
d="M149 175q-31 -97 -53 -174q-6 -22 -21 -22q-34 0 -74 30q-22 17 -14 55q23 110 117 411q-29 57 -29 74q0 14 19 25q119 67 240 67q76 0 107 -38q54 -67 54 -141q0 -58 -60 -124q-44 -49 -124.5 -94t-161.5 -69zM196 318q86 31 140 88q48 50 43 84q-3 16 -36 16
q-40 0 -88 -22q-23 -60 -59 -166z" />
    <glyph glyph-name="Q" unicode="Q" horiz-adv-x="462" 
d="M371 32q8 -12 8 -20q0 -10 -16 -21q-22 -16 -50 -22q-33 -7 -60 29q-35 -18 -89 -13t-96 34q-37 26 -51 72q-11 37 -11 83q0 111 54 233q56 126 140 196q39 32 91 32q29 0 66.5 -14.5t56.5 -33.5q35 -35 39 -96q5 -91 -23 -202q-32 -119 -89 -204q10 -19 30 -53zM189 98
q-17 28 -17 39q0 13 16 21q26 13 61 21q21 41 42 103q37 110 37 191q0 43 -15 48q-22 7 -67 -59q-42 -62 -70 -136q-37 -99 -37 -177q0 -50 20 -58q13 -5 30 7z" />
    <glyph glyph-name="R" unicode="R" horiz-adv-x="485" 
d="M148 190q-35 -105 -58 -184q-6 -22 -21 -22q-5 0 -13 2q-35 9 -54 23q-23 16 -15 55q22 111 118 411q-29 55 -29 74q0 15 18 25q119 67 240 67q76 0 107 -38q54 -67 54 -143q0 -64 -59 -122q-63 -61 -162 -110q55 -92 123 -172q10 -11 10 -20t-14 -20.5t-42 -20.5
q-11 -3 -21 -3q-25 0 -49 22q-68 62 -133 176zM255 487q-14 -34 -61 -165q82 31 141 89q52 52 46 79q-4 19 -42 19q-39 0 -84 -22z" />
    <glyph glyph-name="S" unicode="S" horiz-adv-x="401" 
d="M-32 158q19 10 44 10q33 0 51 -16q64 -56 112 -56q34 0 34 19q0 17 -49 60q-68 59 -84 78q-39 45 -39 105q0 38 17 77q22 50 64 100t86 78q33 20 67 20q30 0 66 -19.5t57 -43.5q30 -34 22 -92q-12 -85 -53 -165q-10 -19 -23 -19q-6 0 -15 4q-67 29 -67 77q0 8 2 16t17 58
q12 39 12 52q0 7 -3 8q-16 9 -61 -45q-48 -57 -48 -106q0 -24 12 -40.5t95 -91.5q57 -52 57 -92q0 -19 -10 -38q-58 -112 -171 -115q-106 -3 -186 111q-21 30 -21 45q0 13 15 21z" />
    <glyph glyph-name="T" unicode="T" horiz-adv-x="443" 
d="M472 528q-34 -3 -109 -11q-87 -250 -161 -515q-6 -22 -20 -22q-32 0 -76 32q-22 16 -14 56q34 169 120 428q-24 -4 -63 -12q-27 -7 -43 16q-8 12 -19 41.5t-11 42.5q0 12 19 16q158 36 337 39q27 0 38 -16q20 -30 25 -66q2 -17 -2 -22.5t-21 -6.5z" />
    <glyph glyph-name="U" unicode="U" horiz-adv-x="451" 
d="M1 151q0 80 43 217q24 78 85 234q9 23 26 23q15 0 42 -15q23 -12 36 -25q18 -18 18 -39q0 -12 -6 -28q-117 -297 -117 -386q0 -34 17 -40q69 -23 216 516q7 25 26 25q34 0 84 -39q18 -14 18 -27q0 -7 -4 -20q-56 -208 -87 -293q-75 -205 -156 -252q-36 -21 -92 -18
q-52 3 -94 34q-55 41 -55 133z" />
    <glyph glyph-name="V" unicode="V" horiz-adv-x="466" 
d="M508 539q-31 -84 -115 -261q-78 -162 -138 -275q-16 -30 -38 -30q-10 0 -23 5q-38 13 -80 40q-38 25 -41 81q-3 52 -3 112q0 162 18 386q2 31 29 31q31 0 60 -12q35 -14 34 -58q-5 -117 -13 -384q71 145 209 444q9 20 26 20q8 0 18 -5q64 -30 64 -63q0 -12 -7 -31z" />
    <glyph glyph-name="W" unicode="W" horiz-adv-x="641" 
d="M145 212q125 245 184 340q15 25 43 18q16 -4 53 -21q16 -7 18 -19q2 -7 -1 -28q-2 -15 -48 -284q135 287 195 395q13 23 25 23q7 0 21 -7q29 -14 50 -35q12 -12 12 -29q0 -16 -10 -36q-158 -315 -252 -527q-11 -25 -33 -25q-8 0 -20 3q-35 8 -66.5 22.5t-30.5 55.5
q2 124 10 207q-47 -92 -145 -270q-14 -23 -43 -17q-45 10 -76 27q-20 11 -18 51q14 232 77 543q6 29 25 29q5 0 12 -1q56 -13 72.5 -31t7.5 -66q-20 -99 -62 -318z" />
    <glyph glyph-name="X" unicode="X" horiz-adv-x="472" 
d="M258 454q54 67 142 174q13 15 27 15q31 0 65 -69q6 -12 6 -24q0 -19 -16 -38q-113 -134 -184 -222l66 -269q3 -10 3 -16q0 -16 -21 -19q-33 -5 -70 0q-30 4 -44 41q-8 22 -41 145q-41 -52 -141 -183q-11 -14 -22 -14q-26 0 -65 63q-7 12 -7 22q0 14 13 34q57 87 181 239
q-18 67 -37 135q-25 96 -25 132q0 22 26 24q40 3 71 -1q35 -4 44 -43.5t29 -125.5z" />
    <glyph glyph-name="Y" unicode="Y" horiz-adv-x="434" 
d="M472 537q-40 -81 -223 -348q-32 -99 -59 -194q-6 -22 -20 -22t-39 11.5t-37 21.5q-17 14 -17 33q0 9 3 23q15 66 46 178q-10 82 -52 362q-4 28 23 32q40 6 67.5 -0.5t35.5 -45.5q16 -77 32 -205q69 104 154 243q11 17 22 17q8 0 20 -7q30 -19 46 -41q9 -12 9 -24t-11 -34
z" />
    <glyph glyph-name="Z" unicode="Z" horiz-adv-x="375" 
d="M261 501q-32 -6 -93 -17q-37 -7 -51 20q-17 32 -24 67q-5 24 17 30q112 29 271 34q30 1 38 -25q9 -29 13 -56q5 -33 -14 -58q-148 -182 -298 -379q58 14 100 20q37 5 47 -22q13 -36 15 -59q3 -27 -26 -33q-103 -22 -183 -45q-17 -5 -29 -5q-18 0 -33 15q-22 22 -42 48
q-15 19 -15 36q0 13 8 25q101 162 299 404z" />
    <glyph glyph-name="bracketleft" unicode="[" horiz-adv-x="304" 
d="M214 18q0 -16 -26 -21q-33 -6 -96 -19q-30 -6 -51 10q-6 5 -35 40q-14 17 -14 37q0 12 4 28q55 216 158 504q9 26 39 30q39 5 109 8q29 1 39 -28q12 -33 14 -55q3 -26 -25 -30q-13 -2 -78 -9q-80 -220 -137 -410q14 1 43 4q32 3 42 -23q14 -38 14 -66z" />
    <glyph glyph-name="backslash" unicode="\" horiz-adv-x="358" 
d="M219 601q6 -98 28 -292.5t39 -304.5q4 -28 -24 -32q-23 -3 -55 1q-26 3 -35 45q-19 86 -47.5 290t-35.5 301q-2 35 31 36q36 2 66.5 -4.5t32.5 -39.5z" />
    <glyph glyph-name="bracketright" unicode="]" horiz-adv-x="318" 
d="M327 526q-84 -227 -163 -498q-7 -25 -41 -31l-91 -15q-32 -5 -45 19q-23 44 -23 64q0 17 21 22q28 7 80 17q65 218 133 411q-11 -1 -33 -4q-31 -4 -40 22q-6 18 -16 55q-4 26 26 32q45 9 117 14q30 2 44 -18q10 -13 27 -40q14 -24 4 -50z" />
    <glyph glyph-name="asciicircum" unicode="^" horiz-adv-x="447" 
d="M365 294q-35 2 -50 7q-27 9 -33 34q-10 46 -21 152q-69 -74 -129 -145q-9 -11 -17 -11q-7 0 -16 11q-19 24 -29 44q-12 23 4 45q82 114 189 214q15 14 27 14q7 0 16 -6q28 -20 42 -36t15 -48q5 -121 24 -251q2 -14 -3 -19.5t-19 -4.5z" />
    <glyph glyph-name="underscore" unicode="_" horiz-adv-x="430" 
d="M-22 -184q-21 0 -21 15t18 60q11 26 39 26h446q24 0 24 -14q0 -4 -2 -11q-5 -16 -18 -50q-12 -26 -38 -26h-448z" />
    <glyph glyph-name="a" unicode="a" horiz-adv-x="479" 
d="M295 155q-68 -11 -187 -37q-19 -35 -59 -114q-10 -19 -21 -19q-6 0 -17 5q-34 17 -48 33q-11 12 -11 26q0 12 9 32q111 249 282 524q25 40 69 37q78 -6 132 -30q23 -11 18 -48q-31 -215 -54 -552q-2 -29 -29 -29q-49 0 -68.5 12t-19.5 47q0 27 4 113zM185 263
q77 12 117 15q10 126 23 232q-61 -103 -140 -247z" />
    <glyph glyph-name="b" unicode="b" 
d="M351 303q49 -32 51 -98q1 -59 -53 -110q-36 -33 -98 -67q-58 -31 -108 -47q-24 -8 -36 -8q-17 0 -37 16q-32 25 -61 57q-22 24 -22 43q0 11 5 32q17 74 111 368q-26 49 -26 68q0 16 19 26q112 59 235 59q82 0 113 -37q41 -50 46 -112q6 -71 -67 -136q-30 -27 -72 -54z
M194 356q76 28 131 77q49 44 45 68q-2 16 -33 16q-40 0 -96 -28q-26 -71 -47 -133zM152 232q-13 -42 -39 -125q71 22 116.5 56t42.5 61q-2 23 -49 23q-32 0 -71 -15z" />
    <glyph glyph-name="c" unicode="c" horiz-adv-x="428" 
d="M333 172q22 -8 22 -26q0 -14 -13 -41q-26 -52 -77 -96q-47 -41 -114 -34q-52 5 -98 33q-42 25 -55 68q-10 32 -10 75q0 112 60 247.5t147 209.5q47 40 101 35q74 -7 119 -49q34 -31 32 -89q-2 -71 -25 -129q-9 -23 -24 -23q-6 0 -13 2q-69 16 -72 85q0 11 2.5 32.5
t2.5 30.5q0 21 -12 26q-21 8 -70 -68q-46 -72 -74 -146q-37 -101 -37 -173q0 -55 27 -55q26 0 78 58q29 33 70 33q16 0 33 -6z" />
    <glyph glyph-name="d" unicode="d" horiz-adv-x="489" 
d="M100 494q-29 58 -29 73t19 26q80 45 176 45q152 0 199 -129q14 -40 14 -87q0 -126 -86 -245q-95 -134 -259 -195q-17 -6 -31 -6q-20 0 -39 14q-25 20 -57 53q-23 24 -23 46q0 16 7 40q45 167 109 365zM118 115q113 56 177 160q51 84 51 158q0 19 -4 32q-14 39 -62 39
q-18 0 -38 -7q-61 -166 -124 -382z" />
    <glyph glyph-name="e" unicode="e" horiz-adv-x="385" 
d="M102 506q-16 27 -24 66q-5 22 17 28q112 32 289 38q30 1 39 -28q10 -35 12 -56q2 -29 -27 -32q-81 -8 -157 -21q-16 -44 -51 -137q32 5 77 7q32 1 41 -23q11 -30 14 -58q3 -27 -25 -33q-54 -10 -158 -34q-22 -62 -31 -91q57 11 120 16q33 3 42 -22q12 -31 15 -59t-24 -34
q-61 -13 -175 -42q-16 -5 -28 -5q-19 0 -35 16q-12 11 -40 43q-21 26 -12 65q22 99 121 396z" />
    <glyph glyph-name="f" unicode="f" horiz-adv-x="380" 
d="M407 522q-72 -9 -158 -22q-5 -14 -48 -135q47 6 74 7q31 1 40.5 -22t14.5 -59q4 -28 -25 -33q-82 -15 -150 -32q-34 -105 -69 -218q-7 -23 -24 -23q-13 0 -39 10.5t-38 19.5q-21 15 -14 55q25 137 130 438q-12 22 -23 64q-2 6 -2 11q0 11 19 17q100 30 282 38
q30 1 42.5 -27.5t13.5 -57.5q1 -27 -26 -31z" />
    <glyph glyph-name="g" unicode="g" horiz-adv-x="442" 
d="M426 373q-8 -26 -34 -22q-79 11 -77 87q2 24 3 48q1 38 -9 41q-22 7 -67.5 -56.5t-82.5 -150.5q-41 -96 -41 -177q0 -60 29 -60q44 0 100 115q-72 -4 -81 78q-2 20 24 27q55 14 122 23q40 5 57 -19q12 -17 23 -40q8 -17 8 -30q0 -14 -9 -35q-36 -88 -85 -146
q-67 -80 -141 -80q-62 0 -120 40q-38 27 -51 74q-8 30 -8 68q0 117 66 257q69 147 162 208q38 25 92 18q68 -9 108 -49q30 -30 32 -87q2 -65 -20 -132z" />
    <glyph glyph-name="h" unicode="h" horiz-adv-x="452" 
d="M498 553q-86 -237 -176 -549q-7 -22 -20 -22q-5 0 -14 2q-41 12 -62 29t-13 54q10 48 38 150q-36 -6 -107 -19q-35 -116 -57 -193q-6 -23 -21 -23q-32 0 -76 32q-18 13 -18 33q0 23 42 178q-5 11 -15 45q-2 8 -2 13q0 11 39 22q61 214 93 301q9 25 26 25q14 0 46 -17
q28 -14 42 -25q19 -15 19 -28q0 -8 -5 -20q-36 -99 -71 -209q35 4 101 10q49 163 87 274q8 25 26 25q35 0 85 -40q17 -14 17 -28q0 -8 -4 -20z" />
    <glyph glyph-name="i" unicode="i" horiz-adv-x="208" 
d="M234 589q19 -15 19 -28q0 -8 -5 -20q-84 -229 -170 -536q-6 -23 -21 -23q-32 0 -76 32q-18 13 -18 33q0 8 3 22q18 86 69 265t84 272q9 24 27 24q36 0 88 -41z" />
    <glyph glyph-name="j" unicode="j" horiz-adv-x="418" 
d="M91 -13q-85 28 -101 116q-9 51 11 119q13 45 36 45q7 0 17 -5q68 -35 62 -97q-4 -44 -2 -58q2 -19 17 -20q35 -3 99 197q47 147 88 327q6 25 26 25q17 0 47 -14q27 -12 42.5 -23.5t18.5 -21.5q2 -8 -2 -26q-106 -458 -219 -543q-40 -30 -86 -30q-26 0 -54 9z" />
    <glyph glyph-name="k" unicode="k" horiz-adv-x="443" 
d="M251 243q46 -111 90 -189q5 -10 5 -17q0 -13 -16 -22.5t-46 -17.5q-11 -3 -20 -3q-29 0 -48 29q-50 78 -86 162l-53 -180q-6 -23 -20 -23t-39.5 11.5t-37.5 20.5q-22 17 -14 55q18 88 70 269q53 186 86 277q9 24 27 24q35 0 87 -41q19 -15 19 -27q0 -8 -5 -20
q-18 -46 -61 -180q168 178 232 256q11 14 21 14q15 0 33 -29q15 -23 20 -42q8 -28 -14 -63q-56 -90 -230 -264z" />
    <glyph glyph-name="l" unicode="l" horiz-adv-x="355" 
d="M259 34q-60 -14 -175 -43q-18 -5 -30 -5q-17 0 -33 16q-12 11 -41 43q-20 25 -12 61q22 96 72 252q50 161 90 259q9 23 27 23q16 0 46 -14t43 -25q17 -14 17 -27q0 -8 -5 -21q-73 -190 -146 -419q47 10 114 15q32 3 42 -22.5t15 -58.5q3 -19 -1.5 -24.5t-22.5 -9.5z" />
    <glyph glyph-name="m" unicode="m" horiz-adv-x="616" 
d="M185 381q-65 -206 -110 -376q-6 -24 -22 -24q-29 0 -70 29q-19 14 -19 35q0 8 2 20q16 86 70 269q47 158 85 267q11 31 36 31q6 0 14 -1q40 -6 92 -28q24 -10 31 -27q6 -13 5 -41q-1 -46 -1 -224q87 164 172 301q18 28 42 28q11 0 30 -5q57 -16 100 -39q21 -11 21 -30
q0 -10 -5 -25q-89 -259 -162 -531q-7 -27 -25 -27q-28 0 -68 28q-18 13 -18 34q0 9 2 21q24 117 90 326q-71 -129 -180 -332q-13 -25 -25 -25q-23 0 -56 17q-26 13 -28 55q-6 117 -3 274z" />
    <glyph glyph-name="n" unicode="n" horiz-adv-x="468" 
d="M291 262q41 164 102 344q8 25 28 25q7 0 16 -3q32 -10 60 -29q17 -11 17 -28q0 -10 -5 -25q-83 -249 -159 -532q-7 -26 -30 -26t-72 26q-27 14 -35 50q-24 104 -36 282q-40 -130 -100 -339q-6 -22 -19 -22t-39.5 11.5t-38.5 21.5q-21 17 -13 55q15 69 67 246
q53 186 88 285q9 26 32 26q7 0 15 -2q39 -12 80 -33q29 -15 30 -59q3 -121 12 -274z" />
    <glyph glyph-name="o" unicode="o" 
d="M414 587q37 -37 40 -96q4 -80 -24 -194q-32 -130 -87 -213q-68 -101 -154 -101q-70 0 -121 36q-37 26 -51 72q-11 37 -11 83q0 111 54 233q56 126 140 196q39 32 91 32q29 0 66.5 -14.5t56.5 -33.5zM313 521q-22 7 -67 -59q-42 -62 -70 -136q-37 -99 -37 -177
q0 -60 28 -60q27 0 62 54.5t63 138.5q37 109 37 190q0 44 -16 49z" />
    <glyph glyph-name="p" unicode="p" horiz-adv-x="472" 
d="M149 175q-31 -97 -53 -174q-6 -22 -21 -22q-34 0 -74 30q-22 17 -14 55q23 110 117 411q-29 57 -29 74q0 14 19 25q119 67 240 67q76 0 107 -38q54 -67 54 -141q0 -58 -60 -124q-44 -49 -124.5 -94t-161.5 -69zM196 318q86 31 140 88q48 50 43 84q-3 16 -36 16
q-40 0 -88 -22q-23 -60 -59 -166z" />
    <glyph glyph-name="q" unicode="q" horiz-adv-x="462" 
d="M371 32q8 -12 8 -20q0 -10 -16 -21q-22 -16 -50 -22q-33 -7 -60 29q-35 -18 -89 -13t-96 34q-37 26 -51 72q-11 37 -11 83q0 111 54 233q56 126 140 196q39 32 91 32q29 0 66.5 -14.5t56.5 -33.5q35 -35 39 -96q5 -91 -23 -202q-32 -119 -89 -204q10 -19 30 -53zM189 98
q-17 28 -17 39q0 13 16 21q26 13 61 21q21 41 42 103q37 110 37 191q0 43 -15 48q-22 7 -67 -59q-42 -62 -70 -136q-37 -99 -37 -177q0 -50 20 -58q13 -5 30 7z" />
    <glyph glyph-name="r" unicode="r" horiz-adv-x="485" 
d="M148 190q-35 -105 -58 -184q-6 -22 -21 -22q-5 0 -13 2q-35 9 -54 23q-23 16 -15 55q22 111 118 411q-29 55 -29 74q0 15 18 25q119 67 240 67q76 0 107 -38q54 -67 54 -143q0 -64 -59 -122q-63 -61 -162 -110q55 -92 123 -172q10 -11 10 -20t-14 -20.5t-42 -20.5
q-11 -3 -21 -3q-25 0 -49 22q-68 62 -133 176zM255 487q-14 -34 -61 -165q82 31 141 89q52 52 46 79q-4 19 -42 19q-39 0 -84 -22z" />
    <glyph glyph-name="s" unicode="s" horiz-adv-x="401" 
d="M-32 158q19 10 44 10q33 0 51 -16q64 -56 112 -56q34 0 34 19q0 17 -49 60q-68 59 -84 78q-39 45 -39 105q0 38 17 77q22 50 64 100t86 78q33 20 67 20q30 0 66 -19.5t57 -43.5q30 -34 22 -92q-12 -85 -53 -165q-10 -19 -23 -19q-6 0 -15 4q-67 29 -67 77q0 8 2 16t17 58
q12 39 12 52q0 7 -3 8q-16 9 -61 -45q-48 -57 -48 -106q0 -24 12 -40.5t95 -91.5q57 -52 57 -92q0 -19 -10 -38q-58 -112 -171 -115q-106 -3 -186 111q-21 30 -21 45q0 13 15 21z" />
    <glyph glyph-name="t" unicode="t" horiz-adv-x="443" 
d="M472 528q-34 -3 -109 -11q-87 -250 -161 -515q-6 -22 -20 -22q-32 0 -76 32q-22 16 -14 56q34 169 120 428q-24 -4 -63 -12q-27 -7 -43 16q-8 12 -19 41.5t-11 42.5q0 12 19 16q158 36 337 39q27 0 38 -16q20 -30 25 -66q2 -17 -2 -22.5t-21 -6.5z" />
    <glyph glyph-name="u" unicode="u" horiz-adv-x="451" 
d="M1 151q0 80 43 217q24 78 85 234q9 23 26 23q15 0 42 -15q23 -12 36 -25q18 -18 18 -39q0 -12 -6 -28q-117 -297 -117 -386q0 -34 17 -40q69 -23 216 516q7 25 26 25q34 0 84 -39q18 -14 18 -27q0 -7 -4 -20q-56 -208 -87 -293q-75 -205 -156 -252q-36 -21 -92 -18
q-52 3 -94 34q-55 41 -55 133z" />
    <glyph glyph-name="v" unicode="v" horiz-adv-x="466" 
d="M508 539q-31 -84 -115 -261q-78 -162 -138 -275q-16 -30 -38 -30q-10 0 -23 5q-38 13 -80 40q-38 25 -41 81q-3 52 -3 112q0 162 18 386q2 31 29 31q31 0 60 -12q35 -14 34 -58q-5 -117 -13 -384q71 145 209 444q9 20 26 20q8 0 18 -5q64 -30 64 -63q0 -12 -7 -31z" />
    <glyph glyph-name="w" unicode="w" horiz-adv-x="641" 
d="M145 212q125 245 184 340q15 25 43 18q16 -4 53 -21q16 -7 18 -19q2 -7 -1 -28q-2 -15 -48 -284q135 287 195 395q13 23 25 23q7 0 21 -7q29 -14 50 -35q12 -12 12 -29q0 -16 -10 -36q-158 -315 -252 -527q-11 -25 -33 -25q-8 0 -20 3q-35 8 -66.5 22.5t-30.5 55.5
q2 124 10 207q-47 -92 -145 -270q-14 -23 -43 -17q-45 10 -76 27q-20 11 -18 51q14 232 77 543q6 29 25 29q5 0 12 -1q56 -13 72.5 -31t7.5 -66q-20 -99 -62 -318z" />
    <glyph glyph-name="x" unicode="x" horiz-adv-x="472" 
d="M258 454q54 67 142 174q13 15 27 15q31 0 65 -69q6 -12 6 -24q0 -19 -16 -38q-113 -134 -184 -222l66 -269q3 -10 3 -16q0 -16 -21 -19q-33 -5 -70 0q-30 4 -44 41q-8 22 -41 145q-41 -52 -141 -183q-11 -14 -22 -14q-26 0 -65 63q-7 12 -7 22q0 14 13 34q57 87 181 239
q-18 67 -37 135q-25 96 -25 132q0 22 26 24q40 3 71 -1q35 -4 44 -43.5t29 -125.5z" />
    <glyph glyph-name="y" unicode="y" horiz-adv-x="434" 
d="M472 537q-40 -81 -223 -348q-32 -99 -59 -194q-6 -22 -20 -22t-39 11.5t-37 21.5q-17 14 -17 33q0 9 3 23q15 66 46 178q-10 82 -52 362q-4 28 23 32q40 6 67.5 -0.5t35.5 -45.5q16 -77 32 -205q69 104 154 243q11 17 22 17q8 0 20 -7q30 -19 46 -41q9 -12 9 -24t-11 -34
z" />
    <glyph glyph-name="z" unicode="z" horiz-adv-x="375" 
d="M261 501q-32 -6 -93 -17q-37 -7 -51 20q-17 32 -24 67q-5 24 17 30q112 29 271 34q30 1 38 -25q9 -29 13 -56q5 -33 -14 -58q-148 -182 -298 -379q58 14 100 20q37 5 47 -22q13 -36 15 -59q3 -27 -26 -33q-103 -22 -183 -45q-17 -5 -29 -5q-18 0 -33 15q-22 22 -42 48
q-15 19 -15 36q0 13 8 25q101 162 299 404z" />
    <glyph glyph-name="braceleft" unicode="{" horiz-adv-x="339" 
d="M249 29q4 -27 -25 -32q-4 -1 -58 -13q-36 -8 -57 -8q-20 0 -35.5 16t-32.5 36q-14 17 -14 37q0 12 4 28q15 57 41 146q-12 1 -23 19q-15 26 -24 68q-5 27 30 37l58 8q38 120 76 226q9 26 40 30q39 5 108 8q39 1 51 -68q1 -7 2 -15q3 -26 -23.5 -29.5t-79.5 -9.5
q-74 -204 -136 -410q14 1 43 4q31 3 41 -22.5t14 -55.5z" />
    <glyph glyph-name="bar" unicode="|" horiz-adv-x="358" 
d="M332 618q0 -8 -5 -21q-34 -90 -103 -311q-67 -213 -98 -325q-6 -22 -20 -22q-6 0 -14 2q-24 7 -50 24q-17 11 -17 31q0 9 3 24q18 86 84 315.5t100 321.5q9 24 26 24q7 0 17 -4q77 -34 77 -59z" />
    <glyph glyph-name="braceright" unicode="}" horiz-adv-x="377" 
d="M327 526q-25 -70 -58 -163q29 0 38 -28q15 -48 15 -71q0 -18 -26 -22q-22 -3 -70 -10q-40 -126 -62 -204q-7 -25 -42 -31l-91 -15q-31 -5 -44 19q-23 44 -23 63q0 17 21 23q33 10 80 17q65 218 133 411q-11 -1 -33 -4q-32 -4 -41 22q-11 30 -16 55q-5 26 27 32
q43 8 117 14q30 2 44 -18q10 -13 27 -40q13 -24 4 -50z" />
    <glyph glyph-name="ellipsis" unicode="&#x2026;" horiz-adv-x="751" 
d="M594 132q12 0 25 -4q43 -15 43 -59q0 -16 -6 -32q-23 -59 -76 -60q-28 -1 -46.5 18t-18.5 49q0 34 22.5 61t56.5 27zM329 132q12 0 25 -4q43 -15 43 -59q0 -16 -6 -32q-23 -59 -76 -60q-28 -1 -46.5 18t-18.5 49q0 34 22.5 61t56.5 27zM64 132q12 0 25 -4q43 -15 43 -59
q0 -16 -6 -32q-23 -59 -76 -60q-28 -1 -46.5 18t-18.5 49q0 34 22.5 61t56.5 27z" />
    <glyph glyph-name="nonbreakingspace" unicode="&#xa0;" horiz-adv-x="241" 
 />
    <glyph glyph-name="endash" unicode="&#x2013;" horiz-adv-x="476" 
d="M56 342q132 22 300 22q35 0 47.5 -27t16.5 -53q4 -24 -32 -26q-154 -7 -277 -27q-35 -6 -53 19q-32 45 -32 66t30 26z" />
    <glyph glyph-name="emdash" unicode="&#x2014;" horiz-adv-x="555" 
d="M61 342q160 22 361 22q44 0 57 -26q20 -40 20 -62q0 -17 -38 -18q-185 -7 -333 -27q-42 -6 -64 19q-39 44 -39 67q0 20 36 25z" />
    <glyph glyph-name="quotedblleft" unicode="&#x201c;" horiz-adv-x="388" 
d="M147 509q-39 66 -55 153q-6 34 12 52q34 33 60 33q14 0 19 -21q18 -82 64 -229q2 -8 2 -13q0 -16 -20 -15q-38 2 -53.5 9.5t-28.5 30.5zM291 502q-31 72 -38 159q-3 34 18 50q34 26 60 26q18 0 20 -23q3 -26 22 -129q17 -93 17 -116q0 -19 -23 -16q-22 3 -43 12t-33 37z
" />
    <glyph glyph-name="quotedblright" unicode="&#x201d;" horiz-adv-x="384" 
d="M209 499q-13 -23 -34 -29q-17 -5 -46 -6q-22 -1 -22 15q0 5 3 13q41 121 66 229q5 20 20 20q26 0 59 -33q19 -19 12 -52q-16 -82 -58 -157zM354 493q-19 -26 -39 -29q-23 -4 -47 -1q-19 2 -19 15q0 6 4 15q55 116 91 220q6 18 20 18q24 0 57 -39q16 -20 6 -53
q-25 -80 -73 -146z" />
    <glyph glyph-name="quoteleft" unicode="&#x2018;" horiz-adv-x="262" 
d="M154 502q-33 81 -38 159q-2 34 18 50q34 26 60 26q18 0 20 -23q3 -26 22 -129q17 -93 17 -116q0 -19 -23 -16q-22 3 -43.5 12t-32.5 37z" />
    <glyph glyph-name="quoteright" unicode="&#x2019;" horiz-adv-x="232" 
d="M209 499q-13 -23 -34 -29q-17 -5 -46 -6q-22 -1 -22 15q0 5 3 13q41 121 66 229q5 20 20 20q26 0 59 -33q19 -19 12 -52q-16 -82 -58 -157z" />
    </font>
</defs>
</svg>
